%TF.GenerationSoftware,KiCad,Pcbnew,5.1.8-db9833491~88~ubuntu20.04.1*%
%TF.CreationDate,2020-12-01T07:47:05-05:00*%
%TF.ProjectId,powerbreakout,706f7765-7262-4726-9561-6b6f75742e6b,rev?*%
%TF.SameCoordinates,Original*%
%TF.FileFunction,Copper,L2,Bot*%
%TF.FilePolarity,Positive*%
%FSLAX46Y46*%
G04 Gerber Fmt 4.6, Leading zero omitted, Abs format (unit mm)*
G04 Created by KiCad (PCBNEW 5.1.8-db9833491~88~ubuntu20.04.1) date 2020-12-01 07:47:05*
%MOMM*%
%LPD*%
G01*
G04 APERTURE LIST*
%TA.AperFunction,SMDPad,CuDef*%
%ADD10C,0.100000*%
%TD*%
%TA.AperFunction,ComponentPad*%
%ADD11C,2.500000*%
%TD*%
%TA.AperFunction,ComponentPad*%
%ADD12R,2.500000X2.500000*%
%TD*%
%TA.AperFunction,ComponentPad*%
%ADD13O,1.727200X1.727200*%
%TD*%
%TA.AperFunction,ComponentPad*%
%ADD14R,1.727200X1.727200*%
%TD*%
%TA.AperFunction,ComponentPad*%
%ADD15O,2.200000X2.200000*%
%TD*%
%TA.AperFunction,ComponentPad*%
%ADD16R,2.200000X2.200000*%
%TD*%
%TA.AperFunction,ComponentPad*%
%ADD17C,1.600000*%
%TD*%
%TA.AperFunction,ComponentPad*%
%ADD18R,1.600000X1.600000*%
%TD*%
%TA.AperFunction,Conductor*%
%ADD19C,0.250000*%
%TD*%
%TA.AperFunction,Conductor*%
%ADD20C,0.254000*%
%TD*%
%TA.AperFunction,Conductor*%
%ADD21C,0.100000*%
%TD*%
G04 APERTURE END LIST*
%TA.AperFunction,SMDPad,CuDef*%
D10*
%TO.P,JP2,2*%
%TO.N,-12V*%
G36*
X8877398Y-11064000D02*
G01*
X8877398Y-11088534D01*
X8872588Y-11137365D01*
X8863016Y-11185490D01*
X8848772Y-11232445D01*
X8829995Y-11277778D01*
X8806864Y-11321051D01*
X8779604Y-11361850D01*
X8748476Y-11399779D01*
X8713779Y-11434476D01*
X8675850Y-11465604D01*
X8635051Y-11492864D01*
X8591778Y-11515995D01*
X8546445Y-11534772D01*
X8499490Y-11549016D01*
X8451365Y-11558588D01*
X8402534Y-11563398D01*
X8378000Y-11563398D01*
X8378000Y-11564000D01*
X7878000Y-11564000D01*
X7878000Y-11563398D01*
X7853466Y-11563398D01*
X7804635Y-11558588D01*
X7756510Y-11549016D01*
X7709555Y-11534772D01*
X7664222Y-11515995D01*
X7620949Y-11492864D01*
X7580150Y-11465604D01*
X7542221Y-11434476D01*
X7507524Y-11399779D01*
X7476396Y-11361850D01*
X7449136Y-11321051D01*
X7426005Y-11277778D01*
X7407228Y-11232445D01*
X7392984Y-11185490D01*
X7383412Y-11137365D01*
X7378602Y-11088534D01*
X7378602Y-11064000D01*
X7378000Y-11064000D01*
X7378000Y-10564000D01*
X8878000Y-10564000D01*
X8878000Y-11064000D01*
X8877398Y-11064000D01*
G37*
%TD.AperFunction*%
%TA.AperFunction,SMDPad,CuDef*%
%TO.P,JP2,1*%
%TO.N,Net-(D2-Pad1)*%
G36*
X7378000Y-10264000D02*
G01*
X7378000Y-9764000D01*
X7378602Y-9764000D01*
X7378602Y-9739466D01*
X7383412Y-9690635D01*
X7392984Y-9642510D01*
X7407228Y-9595555D01*
X7426005Y-9550222D01*
X7449136Y-9506949D01*
X7476396Y-9466150D01*
X7507524Y-9428221D01*
X7542221Y-9393524D01*
X7580150Y-9362396D01*
X7620949Y-9335136D01*
X7664222Y-9312005D01*
X7709555Y-9293228D01*
X7756510Y-9278984D01*
X7804635Y-9269412D01*
X7853466Y-9264602D01*
X7878000Y-9264602D01*
X7878000Y-9264000D01*
X8378000Y-9264000D01*
X8378000Y-9264602D01*
X8402534Y-9264602D01*
X8451365Y-9269412D01*
X8499490Y-9278984D01*
X8546445Y-9293228D01*
X8591778Y-9312005D01*
X8635051Y-9335136D01*
X8675850Y-9362396D01*
X8713779Y-9393524D01*
X8748476Y-9428221D01*
X8779604Y-9466150D01*
X8806864Y-9506949D01*
X8829995Y-9550222D01*
X8848772Y-9595555D01*
X8863016Y-9642510D01*
X8872588Y-9690635D01*
X8877398Y-9739466D01*
X8877398Y-9764000D01*
X8878000Y-9764000D01*
X8878000Y-10264000D01*
X7378000Y-10264000D01*
G37*
%TD.AperFunction*%
%TD*%
%TA.AperFunction,SMDPad,CuDef*%
%TO.P,JP1,2*%
%TO.N,+12V*%
G36*
X7378602Y11064000D02*
G01*
X7378602Y11088534D01*
X7383412Y11137365D01*
X7392984Y11185490D01*
X7407228Y11232445D01*
X7426005Y11277778D01*
X7449136Y11321051D01*
X7476396Y11361850D01*
X7507524Y11399779D01*
X7542221Y11434476D01*
X7580150Y11465604D01*
X7620949Y11492864D01*
X7664222Y11515995D01*
X7709555Y11534772D01*
X7756510Y11549016D01*
X7804635Y11558588D01*
X7853466Y11563398D01*
X7878000Y11563398D01*
X7878000Y11564000D01*
X8378000Y11564000D01*
X8378000Y11563398D01*
X8402534Y11563398D01*
X8451365Y11558588D01*
X8499490Y11549016D01*
X8546445Y11534772D01*
X8591778Y11515995D01*
X8635051Y11492864D01*
X8675850Y11465604D01*
X8713779Y11434476D01*
X8748476Y11399779D01*
X8779604Y11361850D01*
X8806864Y11321051D01*
X8829995Y11277778D01*
X8848772Y11232445D01*
X8863016Y11185490D01*
X8872588Y11137365D01*
X8877398Y11088534D01*
X8877398Y11064000D01*
X8878000Y11064000D01*
X8878000Y10564000D01*
X7378000Y10564000D01*
X7378000Y11064000D01*
X7378602Y11064000D01*
G37*
%TD.AperFunction*%
%TA.AperFunction,SMDPad,CuDef*%
%TO.P,JP1,1*%
%TO.N,Net-(D1-Pad2)*%
G36*
X8878000Y10264000D02*
G01*
X8878000Y9764000D01*
X8877398Y9764000D01*
X8877398Y9739466D01*
X8872588Y9690635D01*
X8863016Y9642510D01*
X8848772Y9595555D01*
X8829995Y9550222D01*
X8806864Y9506949D01*
X8779604Y9466150D01*
X8748476Y9428221D01*
X8713779Y9393524D01*
X8675850Y9362396D01*
X8635051Y9335136D01*
X8591778Y9312005D01*
X8546445Y9293228D01*
X8499490Y9278984D01*
X8451365Y9269412D01*
X8402534Y9264602D01*
X8378000Y9264602D01*
X8378000Y9264000D01*
X7878000Y9264000D01*
X7878000Y9264602D01*
X7853466Y9264602D01*
X7804635Y9269412D01*
X7756510Y9278984D01*
X7709555Y9293228D01*
X7664222Y9312005D01*
X7620949Y9335136D01*
X7580150Y9362396D01*
X7542221Y9393524D01*
X7507524Y9428221D01*
X7476396Y9466150D01*
X7449136Y9506949D01*
X7426005Y9550222D01*
X7407228Y9595555D01*
X7392984Y9642510D01*
X7383412Y9690635D01*
X7378602Y9739466D01*
X7378602Y9764000D01*
X7378000Y9764000D01*
X7378000Y10264000D01*
X8878000Y10264000D01*
G37*
%TD.AperFunction*%
%TD*%
D11*
%TO.P,J2,3*%
%TO.N,-12V*%
X19431000Y-5000000D03*
%TO.P,J2,2*%
%TO.N,GND*%
X19431000Y0D03*
D12*
%TO.P,J2,1*%
%TO.N,+12V*%
X19431000Y5000000D03*
%TD*%
D13*
%TO.P,J1,10*%
%TO.N,Net-(D1-Pad2)*%
X0Y5080000D03*
%TO.P,J1,9*%
X2540000Y5080000D03*
%TO.P,J1,8*%
%TO.N,GND*%
X0Y2540000D03*
%TO.P,J1,7*%
X2540000Y2540000D03*
%TO.P,J1,6*%
X0Y0D03*
%TO.P,J1,5*%
X2540000Y0D03*
%TO.P,J1,4*%
X0Y-2540000D03*
%TO.P,J1,3*%
X2540000Y-2540000D03*
%TO.P,J1,2*%
%TO.N,Net-(D2-Pad1)*%
X0Y-5080000D03*
D14*
%TO.P,J1,1*%
X2540000Y-5080000D03*
%TD*%
D15*
%TO.P,D2,2*%
%TO.N,-12V*%
X8128000Y-14224000D03*
D16*
%TO.P,D2,1*%
%TO.N,Net-(D2-Pad1)*%
X8128000Y-6604000D03*
%TD*%
D15*
%TO.P,D1,2*%
%TO.N,Net-(D1-Pad2)*%
X8128000Y6604000D03*
D16*
%TO.P,D1,1*%
%TO.N,+12V*%
X8128000Y14224000D03*
%TD*%
D17*
%TO.P,C2,2*%
%TO.N,-12V*%
X14700000Y-13970000D03*
D18*
%TO.P,C2,1*%
%TO.N,GND*%
X12700000Y-13970000D03*
%TD*%
D17*
%TO.P,C1,2*%
%TO.N,GND*%
X12827000Y13970000D03*
D18*
%TO.P,C1,1*%
%TO.N,+12V*%
X14827000Y13970000D03*
%TD*%
D19*
%TO.N,+12V*%
X8128000Y11064000D02*
X8128000Y14224000D01*
%TO.N,-12V*%
X8128000Y-14224000D02*
X8128000Y-11064000D01*
%TO.N,Net-(D1-Pad2)*%
X8128000Y6604000D02*
X8128000Y9764000D01*
%TO.N,Net-(D2-Pad1)*%
X8128000Y-9764000D02*
X8128000Y-6604000D01*
%TD*%
D20*
%TO.N,GND*%
X24315001Y-17315000D02*
X-4315000Y-17315000D01*
X-4315000Y-13779872D01*
X-3235000Y-13779872D01*
X-3235000Y-14220128D01*
X-3149110Y-14651925D01*
X-2980631Y-15058669D01*
X-2736038Y-15424729D01*
X-2424729Y-15736038D01*
X-2058669Y-15980631D01*
X-1651925Y-16149110D01*
X-1220128Y-16235000D01*
X-779872Y-16235000D01*
X-348075Y-16149110D01*
X58669Y-15980631D01*
X424729Y-15736038D01*
X736038Y-15424729D01*
X980631Y-15058669D01*
X1149110Y-14651925D01*
X1235000Y-14220128D01*
X1235000Y-13779872D01*
X1149110Y-13348075D01*
X980631Y-12941331D01*
X736038Y-12575271D01*
X424729Y-12263962D01*
X58669Y-12019369D01*
X-348075Y-11850890D01*
X-779872Y-11765000D01*
X-1220128Y-11765000D01*
X-1651925Y-11850890D01*
X-2058669Y-12019369D01*
X-2424729Y-12263962D01*
X-2736038Y-12575271D01*
X-2980631Y-12941331D01*
X-3149110Y-13348075D01*
X-3235000Y-13779872D01*
X-4315000Y-13779872D01*
X-4315000Y-4932401D01*
X-1498600Y-4932401D01*
X-1498600Y-5227599D01*
X-1441010Y-5517125D01*
X-1328042Y-5789853D01*
X-1164039Y-6035302D01*
X-955302Y-6244039D01*
X-709853Y-6408042D01*
X-437125Y-6521010D01*
X-147599Y-6578600D01*
X147599Y-6578600D01*
X437125Y-6521010D01*
X709853Y-6408042D01*
X955302Y-6244039D01*
X1069364Y-6129977D01*
X1086898Y-6187780D01*
X1145863Y-6298094D01*
X1225215Y-6394785D01*
X1321906Y-6474137D01*
X1432220Y-6533102D01*
X1551918Y-6569412D01*
X1676400Y-6581672D01*
X3403600Y-6581672D01*
X3528082Y-6569412D01*
X3647780Y-6533102D01*
X3758094Y-6474137D01*
X3854785Y-6394785D01*
X3934137Y-6298094D01*
X3993102Y-6187780D01*
X4029412Y-6068082D01*
X4041672Y-5943600D01*
X4041672Y-5504000D01*
X6389928Y-5504000D01*
X6389928Y-7704000D01*
X6402188Y-7828482D01*
X6438498Y-7948180D01*
X6497463Y-8058494D01*
X6576815Y-8155185D01*
X6673506Y-8234537D01*
X6783820Y-8293502D01*
X6903518Y-8329812D01*
X7028000Y-8342072D01*
X7368000Y-8342072D01*
X7368000Y-8749638D01*
X7287808Y-8792502D01*
X7206309Y-8846958D01*
X7109618Y-8926310D01*
X7040310Y-8995618D01*
X6960958Y-9092309D01*
X6906502Y-9173808D01*
X6847536Y-9284125D01*
X6810027Y-9374681D01*
X6773718Y-9494377D01*
X6754596Y-9590510D01*
X6742336Y-9714991D01*
X6742336Y-9739550D01*
X6739928Y-9764000D01*
X6739928Y-10264000D01*
X6752188Y-10388482D01*
X6759929Y-10414000D01*
X6752188Y-10439518D01*
X6739928Y-10564000D01*
X6739928Y-11064000D01*
X6742336Y-11088450D01*
X6742336Y-11113009D01*
X6754596Y-11237490D01*
X6773718Y-11333623D01*
X6810027Y-11453319D01*
X6847536Y-11543875D01*
X6906502Y-11654192D01*
X6960958Y-11735691D01*
X7040310Y-11832382D01*
X7109618Y-11901690D01*
X7206309Y-11981042D01*
X7287808Y-12035498D01*
X7368001Y-12078362D01*
X7368000Y-12660852D01*
X7306169Y-12686463D01*
X7022002Y-12876337D01*
X6780337Y-13118002D01*
X6590463Y-13402169D01*
X6459675Y-13717919D01*
X6393000Y-14053117D01*
X6393000Y-14394883D01*
X6459675Y-14730081D01*
X6590463Y-15045831D01*
X6780337Y-15329998D01*
X7022002Y-15571663D01*
X7306169Y-15761537D01*
X7621919Y-15892325D01*
X7957117Y-15959000D01*
X8298883Y-15959000D01*
X8634081Y-15892325D01*
X8949831Y-15761537D01*
X9233998Y-15571663D01*
X9475663Y-15329998D01*
X9665537Y-15045831D01*
X9779790Y-14770000D01*
X11261928Y-14770000D01*
X11274188Y-14894482D01*
X11310498Y-15014180D01*
X11369463Y-15124494D01*
X11448815Y-15221185D01*
X11545506Y-15300537D01*
X11655820Y-15359502D01*
X11775518Y-15395812D01*
X11900000Y-15408072D01*
X12414250Y-15405000D01*
X12573000Y-15246250D01*
X12573000Y-14097000D01*
X11423750Y-14097000D01*
X11265000Y-14255750D01*
X11261928Y-14770000D01*
X9779790Y-14770000D01*
X9796325Y-14730081D01*
X9863000Y-14394883D01*
X9863000Y-14053117D01*
X9796325Y-13717919D01*
X9665537Y-13402169D01*
X9510407Y-13170000D01*
X11261928Y-13170000D01*
X11265000Y-13684250D01*
X11423750Y-13843000D01*
X12573000Y-13843000D01*
X12573000Y-12693750D01*
X12827000Y-12693750D01*
X12827000Y-13843000D01*
X12847000Y-13843000D01*
X12847000Y-14097000D01*
X12827000Y-14097000D01*
X12827000Y-15246250D01*
X12985750Y-15405000D01*
X13500000Y-15408072D01*
X13624482Y-15395812D01*
X13744180Y-15359502D01*
X13854494Y-15300537D01*
X13951185Y-15221185D01*
X13964790Y-15204607D01*
X14020273Y-15241680D01*
X14281426Y-15349853D01*
X14558665Y-15405000D01*
X14841335Y-15405000D01*
X15118574Y-15349853D01*
X15379727Y-15241680D01*
X15614759Y-15084637D01*
X15814637Y-14884759D01*
X15971680Y-14649727D01*
X16079853Y-14388574D01*
X16135000Y-14111335D01*
X16135000Y-13828665D01*
X16125295Y-13779872D01*
X18765000Y-13779872D01*
X18765000Y-14220128D01*
X18850890Y-14651925D01*
X19019369Y-15058669D01*
X19263962Y-15424729D01*
X19575271Y-15736038D01*
X19941331Y-15980631D01*
X20348075Y-16149110D01*
X20779872Y-16235000D01*
X21220128Y-16235000D01*
X21651925Y-16149110D01*
X22058669Y-15980631D01*
X22424729Y-15736038D01*
X22736038Y-15424729D01*
X22980631Y-15058669D01*
X23149110Y-14651925D01*
X23235000Y-14220128D01*
X23235000Y-13779872D01*
X23149110Y-13348075D01*
X22980631Y-12941331D01*
X22736038Y-12575271D01*
X22424729Y-12263962D01*
X22058669Y-12019369D01*
X21651925Y-11850890D01*
X21220128Y-11765000D01*
X20779872Y-11765000D01*
X20348075Y-11850890D01*
X19941331Y-12019369D01*
X19575271Y-12263962D01*
X19263962Y-12575271D01*
X19019369Y-12941331D01*
X18850890Y-13348075D01*
X18765000Y-13779872D01*
X16125295Y-13779872D01*
X16079853Y-13551426D01*
X15971680Y-13290273D01*
X15814637Y-13055241D01*
X15614759Y-12855363D01*
X15379727Y-12698320D01*
X15118574Y-12590147D01*
X14841335Y-12535000D01*
X14558665Y-12535000D01*
X14281426Y-12590147D01*
X14020273Y-12698320D01*
X13964790Y-12735393D01*
X13951185Y-12718815D01*
X13854494Y-12639463D01*
X13744180Y-12580498D01*
X13624482Y-12544188D01*
X13500000Y-12531928D01*
X12985750Y-12535000D01*
X12827000Y-12693750D01*
X12573000Y-12693750D01*
X12414250Y-12535000D01*
X11900000Y-12531928D01*
X11775518Y-12544188D01*
X11655820Y-12580498D01*
X11545506Y-12639463D01*
X11448815Y-12718815D01*
X11369463Y-12815506D01*
X11310498Y-12925820D01*
X11274188Y-13045518D01*
X11261928Y-13170000D01*
X9510407Y-13170000D01*
X9475663Y-13118002D01*
X9233998Y-12876337D01*
X8949831Y-12686463D01*
X8888000Y-12660852D01*
X8888000Y-12078362D01*
X8968192Y-12035498D01*
X9049691Y-11981042D01*
X9146382Y-11901690D01*
X9215690Y-11832382D01*
X9295042Y-11735691D01*
X9349498Y-11654192D01*
X9408464Y-11543875D01*
X9445973Y-11453319D01*
X9482282Y-11333623D01*
X9501404Y-11237490D01*
X9513664Y-11113009D01*
X9513664Y-11088450D01*
X9516072Y-11064000D01*
X9516072Y-10564000D01*
X9503812Y-10439518D01*
X9496071Y-10414000D01*
X9503812Y-10388482D01*
X9516072Y-10264000D01*
X9516072Y-9764000D01*
X9513664Y-9739550D01*
X9513664Y-9714991D01*
X9501404Y-9590510D01*
X9482282Y-9494377D01*
X9445973Y-9374681D01*
X9408464Y-9284125D01*
X9349498Y-9173808D01*
X9295042Y-9092309D01*
X9215690Y-8995618D01*
X9146382Y-8926310D01*
X9049691Y-8846958D01*
X8968192Y-8792502D01*
X8888000Y-8749638D01*
X8888000Y-8342072D01*
X9228000Y-8342072D01*
X9352482Y-8329812D01*
X9472180Y-8293502D01*
X9582494Y-8234537D01*
X9679185Y-8155185D01*
X9758537Y-8058494D01*
X9817502Y-7948180D01*
X9853812Y-7828482D01*
X9866072Y-7704000D01*
X9866072Y-5504000D01*
X9853812Y-5379518D01*
X9817502Y-5259820D01*
X9758537Y-5149506D01*
X9679185Y-5052815D01*
X9582494Y-4973463D01*
X9472180Y-4914498D01*
X9352482Y-4878188D01*
X9228000Y-4865928D01*
X7028000Y-4865928D01*
X6903518Y-4878188D01*
X6783820Y-4914498D01*
X6673506Y-4973463D01*
X6576815Y-5052815D01*
X6497463Y-5149506D01*
X6438498Y-5259820D01*
X6402188Y-5379518D01*
X6389928Y-5504000D01*
X4041672Y-5504000D01*
X4041672Y-4814344D01*
X17546000Y-4814344D01*
X17546000Y-5185656D01*
X17618439Y-5549834D01*
X17760534Y-5892882D01*
X17966825Y-6201618D01*
X18229382Y-6464175D01*
X18538118Y-6670466D01*
X18881166Y-6812561D01*
X19245344Y-6885000D01*
X19616656Y-6885000D01*
X19980834Y-6812561D01*
X20323882Y-6670466D01*
X20632618Y-6464175D01*
X20895175Y-6201618D01*
X21101466Y-5892882D01*
X21243561Y-5549834D01*
X21316000Y-5185656D01*
X21316000Y-4814344D01*
X21243561Y-4450166D01*
X21101466Y-4107118D01*
X20895175Y-3798382D01*
X20632618Y-3535825D01*
X20323882Y-3329534D01*
X19980834Y-3187439D01*
X19616656Y-3115000D01*
X19245344Y-3115000D01*
X18881166Y-3187439D01*
X18538118Y-3329534D01*
X18229382Y-3535825D01*
X17966825Y-3798382D01*
X17760534Y-4107118D01*
X17618439Y-4450166D01*
X17546000Y-4814344D01*
X4041672Y-4814344D01*
X4041672Y-4216400D01*
X4029412Y-4091918D01*
X3993102Y-3972220D01*
X3934137Y-3861906D01*
X3854785Y-3765215D01*
X3758094Y-3685863D01*
X3647780Y-3626898D01*
X3583426Y-3607376D01*
X3646854Y-3550293D01*
X3822684Y-3314944D01*
X3949222Y-3049814D01*
X3994958Y-2899026D01*
X3873817Y-2667000D01*
X2667000Y-2667000D01*
X2667000Y-2687000D01*
X2413000Y-2687000D01*
X2413000Y-2667000D01*
X127000Y-2667000D01*
X127000Y-2687000D01*
X-127000Y-2687000D01*
X-127000Y-2667000D01*
X-1333817Y-2667000D01*
X-1454958Y-2899026D01*
X-1409222Y-3049814D01*
X-1282684Y-3314944D01*
X-1106854Y-3550293D01*
X-888488Y-3746817D01*
X-789897Y-3805441D01*
X-955302Y-3915961D01*
X-1164039Y-4124698D01*
X-1328042Y-4370147D01*
X-1441010Y-4642875D01*
X-1498600Y-4932401D01*
X-4315000Y-4932401D01*
X-4315000Y-359026D01*
X-1454958Y-359026D01*
X-1409222Y-509814D01*
X-1282684Y-774944D01*
X-1106854Y-1010293D01*
X-888488Y-1206817D01*
X-782230Y-1270000D01*
X-888488Y-1333183D01*
X-1106854Y-1529707D01*
X-1282684Y-1765056D01*
X-1409222Y-2030186D01*
X-1454958Y-2180974D01*
X-1333817Y-2413000D01*
X-127000Y-2413000D01*
X-127000Y-127000D01*
X127000Y-127000D01*
X127000Y-2413000D01*
X2413000Y-2413000D01*
X2413000Y-127000D01*
X2667000Y-127000D01*
X2667000Y-2413000D01*
X3873817Y-2413000D01*
X3994958Y-2180974D01*
X3949222Y-2030186D01*
X3822684Y-1765056D01*
X3646854Y-1529707D01*
X3428488Y-1333183D01*
X3395563Y-1313605D01*
X18297000Y-1313605D01*
X18422914Y-1603577D01*
X18755126Y-1769433D01*
X19113312Y-1867290D01*
X19483706Y-1893389D01*
X19852075Y-1846725D01*
X20204262Y-1729094D01*
X20439086Y-1603577D01*
X20565000Y-1313605D01*
X19431000Y-179605D01*
X18297000Y-1313605D01*
X3395563Y-1313605D01*
X3322230Y-1270000D01*
X3428488Y-1206817D01*
X3646854Y-1010293D01*
X3822684Y-774944D01*
X3949222Y-509814D01*
X3994958Y-359026D01*
X3873817Y-127000D01*
X2667000Y-127000D01*
X2413000Y-127000D01*
X127000Y-127000D01*
X-127000Y-127000D01*
X-1333817Y-127000D01*
X-1454958Y-359026D01*
X-4315000Y-359026D01*
X-4315000Y-52706D01*
X17537611Y-52706D01*
X17584275Y-421075D01*
X17701906Y-773262D01*
X17827423Y-1008086D01*
X18117395Y-1134000D01*
X19251395Y0D01*
X19610605Y0D01*
X20744605Y-1134000D01*
X21034577Y-1008086D01*
X21200433Y-675874D01*
X21298290Y-317688D01*
X21324389Y52706D01*
X21277725Y421075D01*
X21160094Y773262D01*
X21034577Y1008086D01*
X20744605Y1134000D01*
X19610605Y0D01*
X19251395Y0D01*
X18117395Y1134000D01*
X17827423Y1008086D01*
X17661567Y675874D01*
X17563710Y317688D01*
X17537611Y-52706D01*
X-4315000Y-52706D01*
X-4315000Y2180974D01*
X-1454958Y2180974D01*
X-1409222Y2030186D01*
X-1282684Y1765056D01*
X-1106854Y1529707D01*
X-888488Y1333183D01*
X-782230Y1270000D01*
X-888488Y1206817D01*
X-1106854Y1010293D01*
X-1282684Y774944D01*
X-1409222Y509814D01*
X-1454958Y359026D01*
X-1333817Y127000D01*
X-127000Y127000D01*
X-127000Y2413000D01*
X127000Y2413000D01*
X127000Y127000D01*
X2413000Y127000D01*
X2413000Y2413000D01*
X2667000Y2413000D01*
X2667000Y127000D01*
X3873817Y127000D01*
X3994958Y359026D01*
X3949222Y509814D01*
X3822684Y774944D01*
X3646854Y1010293D01*
X3428488Y1206817D01*
X3322230Y1270000D01*
X3395562Y1313605D01*
X18297000Y1313605D01*
X19431000Y179605D01*
X20565000Y1313605D01*
X20439086Y1603577D01*
X20106874Y1769433D01*
X19748688Y1867290D01*
X19378294Y1893389D01*
X19009925Y1846725D01*
X18657738Y1729094D01*
X18422914Y1603577D01*
X18297000Y1313605D01*
X3395562Y1313605D01*
X3428488Y1333183D01*
X3646854Y1529707D01*
X3822684Y1765056D01*
X3949222Y2030186D01*
X3994958Y2180974D01*
X3873817Y2413000D01*
X2667000Y2413000D01*
X2413000Y2413000D01*
X127000Y2413000D01*
X-127000Y2413000D01*
X-1333817Y2413000D01*
X-1454958Y2180974D01*
X-4315000Y2180974D01*
X-4315000Y5227599D01*
X-1498600Y5227599D01*
X-1498600Y4932401D01*
X-1441010Y4642875D01*
X-1328042Y4370147D01*
X-1164039Y4124698D01*
X-955302Y3915961D01*
X-789897Y3805441D01*
X-888488Y3746817D01*
X-1106854Y3550293D01*
X-1282684Y3314944D01*
X-1409222Y3049814D01*
X-1454958Y2899026D01*
X-1333817Y2667000D01*
X-127000Y2667000D01*
X-127000Y2687000D01*
X127000Y2687000D01*
X127000Y2667000D01*
X2413000Y2667000D01*
X2413000Y2687000D01*
X2667000Y2687000D01*
X2667000Y2667000D01*
X3873817Y2667000D01*
X3994958Y2899026D01*
X3949222Y3049814D01*
X3822684Y3314944D01*
X3646854Y3550293D01*
X3428488Y3746817D01*
X3329897Y3805441D01*
X3495302Y3915961D01*
X3704039Y4124698D01*
X3868042Y4370147D01*
X3981010Y4642875D01*
X4038600Y4932401D01*
X4038600Y5227599D01*
X3981010Y5517125D01*
X3868042Y5789853D01*
X3704039Y6035302D01*
X3495302Y6244039D01*
X3249853Y6408042D01*
X2977125Y6521010D01*
X2687599Y6578600D01*
X2392401Y6578600D01*
X2102875Y6521010D01*
X1830147Y6408042D01*
X1584698Y6244039D01*
X1375961Y6035302D01*
X1270000Y5876719D01*
X1164039Y6035302D01*
X955302Y6244039D01*
X709853Y6408042D01*
X437125Y6521010D01*
X147599Y6578600D01*
X-147599Y6578600D01*
X-437125Y6521010D01*
X-709853Y6408042D01*
X-955302Y6244039D01*
X-1164039Y6035302D01*
X-1328042Y5789853D01*
X-1441010Y5517125D01*
X-1498600Y5227599D01*
X-4315000Y5227599D01*
X-4315000Y14220128D01*
X-3235000Y14220128D01*
X-3235000Y13779872D01*
X-3149110Y13348075D01*
X-2980631Y12941331D01*
X-2736038Y12575271D01*
X-2424729Y12263962D01*
X-2058669Y12019369D01*
X-1651925Y11850890D01*
X-1220128Y11765000D01*
X-779872Y11765000D01*
X-348075Y11850890D01*
X58669Y12019369D01*
X424729Y12263962D01*
X736038Y12575271D01*
X980631Y12941331D01*
X1149110Y13348075D01*
X1235000Y13779872D01*
X1235000Y14220128D01*
X1149110Y14651925D01*
X980631Y15058669D01*
X803343Y15324000D01*
X6389928Y15324000D01*
X6389928Y13124000D01*
X6402188Y12999518D01*
X6438498Y12879820D01*
X6497463Y12769506D01*
X6576815Y12672815D01*
X6673506Y12593463D01*
X6783820Y12534498D01*
X6903518Y12498188D01*
X7028000Y12485928D01*
X7368000Y12485928D01*
X7368000Y12078362D01*
X7287808Y12035498D01*
X7206309Y11981042D01*
X7109618Y11901690D01*
X7040310Y11832382D01*
X6960958Y11735691D01*
X6906502Y11654192D01*
X6847536Y11543875D01*
X6810027Y11453319D01*
X6773718Y11333623D01*
X6754596Y11237490D01*
X6742336Y11113009D01*
X6742336Y11088450D01*
X6739928Y11064000D01*
X6739928Y10564000D01*
X6752188Y10439518D01*
X6759929Y10414000D01*
X6752188Y10388482D01*
X6739928Y10264000D01*
X6739928Y9764000D01*
X6742336Y9739550D01*
X6742336Y9714991D01*
X6754596Y9590510D01*
X6773718Y9494377D01*
X6810027Y9374681D01*
X6847536Y9284125D01*
X6906502Y9173808D01*
X6960958Y9092309D01*
X7040310Y8995618D01*
X7109618Y8926310D01*
X7206309Y8846958D01*
X7287808Y8792502D01*
X7368001Y8749638D01*
X7368000Y8167148D01*
X7306169Y8141537D01*
X7022002Y7951663D01*
X6780337Y7709998D01*
X6590463Y7425831D01*
X6459675Y7110081D01*
X6393000Y6774883D01*
X6393000Y6433117D01*
X6459675Y6097919D01*
X6590463Y5782169D01*
X6780337Y5498002D01*
X7022002Y5256337D01*
X7306169Y5066463D01*
X7621919Y4935675D01*
X7957117Y4869000D01*
X8298883Y4869000D01*
X8634081Y4935675D01*
X8949831Y5066463D01*
X9233998Y5256337D01*
X9475663Y5498002D01*
X9665537Y5782169D01*
X9796325Y6097919D01*
X9826575Y6250000D01*
X17542928Y6250000D01*
X17542928Y3750000D01*
X17555188Y3625518D01*
X17591498Y3505820D01*
X17650463Y3395506D01*
X17729815Y3298815D01*
X17826506Y3219463D01*
X17936820Y3160498D01*
X18056518Y3124188D01*
X18181000Y3111928D01*
X20681000Y3111928D01*
X20805482Y3124188D01*
X20925180Y3160498D01*
X21035494Y3219463D01*
X21132185Y3298815D01*
X21211537Y3395506D01*
X21270502Y3505820D01*
X21306812Y3625518D01*
X21319072Y3750000D01*
X21319072Y6250000D01*
X21306812Y6374482D01*
X21270502Y6494180D01*
X21211537Y6604494D01*
X21132185Y6701185D01*
X21035494Y6780537D01*
X20925180Y6839502D01*
X20805482Y6875812D01*
X20681000Y6888072D01*
X18181000Y6888072D01*
X18056518Y6875812D01*
X17936820Y6839502D01*
X17826506Y6780537D01*
X17729815Y6701185D01*
X17650463Y6604494D01*
X17591498Y6494180D01*
X17555188Y6374482D01*
X17542928Y6250000D01*
X9826575Y6250000D01*
X9863000Y6433117D01*
X9863000Y6774883D01*
X9796325Y7110081D01*
X9665537Y7425831D01*
X9475663Y7709998D01*
X9233998Y7951663D01*
X8949831Y8141537D01*
X8888000Y8167148D01*
X8888000Y8749638D01*
X8968192Y8792502D01*
X9049691Y8846958D01*
X9146382Y8926310D01*
X9215690Y8995618D01*
X9295042Y9092309D01*
X9349498Y9173808D01*
X9408464Y9284125D01*
X9445973Y9374681D01*
X9482282Y9494377D01*
X9501404Y9590510D01*
X9513664Y9714991D01*
X9513664Y9739550D01*
X9516072Y9764000D01*
X9516072Y10264000D01*
X9503812Y10388482D01*
X9496071Y10414000D01*
X9503812Y10439518D01*
X9516072Y10564000D01*
X9516072Y11064000D01*
X9513664Y11088450D01*
X9513664Y11113009D01*
X9501404Y11237490D01*
X9482282Y11333623D01*
X9445973Y11453319D01*
X9408464Y11543875D01*
X9349498Y11654192D01*
X9295042Y11735691D01*
X9215690Y11832382D01*
X9146382Y11901690D01*
X9049691Y11981042D01*
X8968192Y12035498D01*
X8888000Y12078362D01*
X8888000Y12485928D01*
X9228000Y12485928D01*
X9352482Y12498188D01*
X9472180Y12534498D01*
X9582494Y12593463D01*
X9679185Y12672815D01*
X9758537Y12769506D01*
X9817502Y12879820D01*
X9853812Y12999518D01*
X9866072Y13124000D01*
X9866072Y13899488D01*
X11386783Y13899488D01*
X11428213Y13619870D01*
X11523397Y13353708D01*
X11590329Y13228486D01*
X11834298Y13156903D01*
X12647395Y13970000D01*
X11834298Y14783097D01*
X11590329Y14711514D01*
X11469429Y14456004D01*
X11400700Y14181816D01*
X11386783Y13899488D01*
X9866072Y13899488D01*
X9866072Y14962702D01*
X12013903Y14962702D01*
X12827000Y14149605D01*
X12841143Y14163748D01*
X13020748Y13984143D01*
X13006605Y13970000D01*
X13020748Y13955858D01*
X12841143Y13776253D01*
X12827000Y13790395D01*
X12013903Y12977298D01*
X12085486Y12733329D01*
X12340996Y12612429D01*
X12615184Y12543700D01*
X12897512Y12529783D01*
X13177130Y12571213D01*
X13443292Y12666397D01*
X13565309Y12731616D01*
X13575815Y12718815D01*
X13672506Y12639463D01*
X13782820Y12580498D01*
X13902518Y12544188D01*
X14027000Y12531928D01*
X15627000Y12531928D01*
X15751482Y12544188D01*
X15871180Y12580498D01*
X15981494Y12639463D01*
X16078185Y12718815D01*
X16157537Y12815506D01*
X16216502Y12925820D01*
X16252812Y13045518D01*
X16265072Y13170000D01*
X16265072Y14220128D01*
X18765000Y14220128D01*
X18765000Y13779872D01*
X18850890Y13348075D01*
X19019369Y12941331D01*
X19263962Y12575271D01*
X19575271Y12263962D01*
X19941331Y12019369D01*
X20348075Y11850890D01*
X20779872Y11765000D01*
X21220128Y11765000D01*
X21651925Y11850890D01*
X22058669Y12019369D01*
X22424729Y12263962D01*
X22736038Y12575271D01*
X22980631Y12941331D01*
X23149110Y13348075D01*
X23235000Y13779872D01*
X23235000Y14220128D01*
X23149110Y14651925D01*
X22980631Y15058669D01*
X22736038Y15424729D01*
X22424729Y15736038D01*
X22058669Y15980631D01*
X21651925Y16149110D01*
X21220128Y16235000D01*
X20779872Y16235000D01*
X20348075Y16149110D01*
X19941331Y15980631D01*
X19575271Y15736038D01*
X19263962Y15424729D01*
X19019369Y15058669D01*
X18850890Y14651925D01*
X18765000Y14220128D01*
X16265072Y14220128D01*
X16265072Y14770000D01*
X16252812Y14894482D01*
X16216502Y15014180D01*
X16157537Y15124494D01*
X16078185Y15221185D01*
X15981494Y15300537D01*
X15871180Y15359502D01*
X15751482Y15395812D01*
X15627000Y15408072D01*
X14027000Y15408072D01*
X13902518Y15395812D01*
X13782820Y15359502D01*
X13672506Y15300537D01*
X13575815Y15221185D01*
X13565193Y15208242D01*
X13313004Y15327571D01*
X13038816Y15396300D01*
X12756488Y15410217D01*
X12476870Y15368787D01*
X12210708Y15273603D01*
X12085486Y15206671D01*
X12013903Y14962702D01*
X9866072Y14962702D01*
X9866072Y15324000D01*
X9853812Y15448482D01*
X9817502Y15568180D01*
X9758537Y15678494D01*
X9679185Y15775185D01*
X9582494Y15854537D01*
X9472180Y15913502D01*
X9352482Y15949812D01*
X9228000Y15962072D01*
X7028000Y15962072D01*
X6903518Y15949812D01*
X6783820Y15913502D01*
X6673506Y15854537D01*
X6576815Y15775185D01*
X6497463Y15678494D01*
X6438498Y15568180D01*
X6402188Y15448482D01*
X6389928Y15324000D01*
X803343Y15324000D01*
X736038Y15424729D01*
X424729Y15736038D01*
X58669Y15980631D01*
X-348075Y16149110D01*
X-779872Y16235000D01*
X-1220128Y16235000D01*
X-1651925Y16149110D01*
X-2058669Y15980631D01*
X-2424729Y15736038D01*
X-2736038Y15424729D01*
X-2980631Y15058669D01*
X-3149110Y14651925D01*
X-3235000Y14220128D01*
X-4315000Y14220128D01*
X-4315000Y17315000D01*
X24315000Y17315000D01*
X24315001Y-17315000D01*
%TA.AperFunction,Conductor*%
D21*
G36*
X24315001Y-17315000D02*
G01*
X-4315000Y-17315000D01*
X-4315000Y-13779872D01*
X-3235000Y-13779872D01*
X-3235000Y-14220128D01*
X-3149110Y-14651925D01*
X-2980631Y-15058669D01*
X-2736038Y-15424729D01*
X-2424729Y-15736038D01*
X-2058669Y-15980631D01*
X-1651925Y-16149110D01*
X-1220128Y-16235000D01*
X-779872Y-16235000D01*
X-348075Y-16149110D01*
X58669Y-15980631D01*
X424729Y-15736038D01*
X736038Y-15424729D01*
X980631Y-15058669D01*
X1149110Y-14651925D01*
X1235000Y-14220128D01*
X1235000Y-13779872D01*
X1149110Y-13348075D01*
X980631Y-12941331D01*
X736038Y-12575271D01*
X424729Y-12263962D01*
X58669Y-12019369D01*
X-348075Y-11850890D01*
X-779872Y-11765000D01*
X-1220128Y-11765000D01*
X-1651925Y-11850890D01*
X-2058669Y-12019369D01*
X-2424729Y-12263962D01*
X-2736038Y-12575271D01*
X-2980631Y-12941331D01*
X-3149110Y-13348075D01*
X-3235000Y-13779872D01*
X-4315000Y-13779872D01*
X-4315000Y-4932401D01*
X-1498600Y-4932401D01*
X-1498600Y-5227599D01*
X-1441010Y-5517125D01*
X-1328042Y-5789853D01*
X-1164039Y-6035302D01*
X-955302Y-6244039D01*
X-709853Y-6408042D01*
X-437125Y-6521010D01*
X-147599Y-6578600D01*
X147599Y-6578600D01*
X437125Y-6521010D01*
X709853Y-6408042D01*
X955302Y-6244039D01*
X1069364Y-6129977D01*
X1086898Y-6187780D01*
X1145863Y-6298094D01*
X1225215Y-6394785D01*
X1321906Y-6474137D01*
X1432220Y-6533102D01*
X1551918Y-6569412D01*
X1676400Y-6581672D01*
X3403600Y-6581672D01*
X3528082Y-6569412D01*
X3647780Y-6533102D01*
X3758094Y-6474137D01*
X3854785Y-6394785D01*
X3934137Y-6298094D01*
X3993102Y-6187780D01*
X4029412Y-6068082D01*
X4041672Y-5943600D01*
X4041672Y-5504000D01*
X6389928Y-5504000D01*
X6389928Y-7704000D01*
X6402188Y-7828482D01*
X6438498Y-7948180D01*
X6497463Y-8058494D01*
X6576815Y-8155185D01*
X6673506Y-8234537D01*
X6783820Y-8293502D01*
X6903518Y-8329812D01*
X7028000Y-8342072D01*
X7368000Y-8342072D01*
X7368000Y-8749638D01*
X7287808Y-8792502D01*
X7206309Y-8846958D01*
X7109618Y-8926310D01*
X7040310Y-8995618D01*
X6960958Y-9092309D01*
X6906502Y-9173808D01*
X6847536Y-9284125D01*
X6810027Y-9374681D01*
X6773718Y-9494377D01*
X6754596Y-9590510D01*
X6742336Y-9714991D01*
X6742336Y-9739550D01*
X6739928Y-9764000D01*
X6739928Y-10264000D01*
X6752188Y-10388482D01*
X6759929Y-10414000D01*
X6752188Y-10439518D01*
X6739928Y-10564000D01*
X6739928Y-11064000D01*
X6742336Y-11088450D01*
X6742336Y-11113009D01*
X6754596Y-11237490D01*
X6773718Y-11333623D01*
X6810027Y-11453319D01*
X6847536Y-11543875D01*
X6906502Y-11654192D01*
X6960958Y-11735691D01*
X7040310Y-11832382D01*
X7109618Y-11901690D01*
X7206309Y-11981042D01*
X7287808Y-12035498D01*
X7368001Y-12078362D01*
X7368000Y-12660852D01*
X7306169Y-12686463D01*
X7022002Y-12876337D01*
X6780337Y-13118002D01*
X6590463Y-13402169D01*
X6459675Y-13717919D01*
X6393000Y-14053117D01*
X6393000Y-14394883D01*
X6459675Y-14730081D01*
X6590463Y-15045831D01*
X6780337Y-15329998D01*
X7022002Y-15571663D01*
X7306169Y-15761537D01*
X7621919Y-15892325D01*
X7957117Y-15959000D01*
X8298883Y-15959000D01*
X8634081Y-15892325D01*
X8949831Y-15761537D01*
X9233998Y-15571663D01*
X9475663Y-15329998D01*
X9665537Y-15045831D01*
X9779790Y-14770000D01*
X11261928Y-14770000D01*
X11274188Y-14894482D01*
X11310498Y-15014180D01*
X11369463Y-15124494D01*
X11448815Y-15221185D01*
X11545506Y-15300537D01*
X11655820Y-15359502D01*
X11775518Y-15395812D01*
X11900000Y-15408072D01*
X12414250Y-15405000D01*
X12573000Y-15246250D01*
X12573000Y-14097000D01*
X11423750Y-14097000D01*
X11265000Y-14255750D01*
X11261928Y-14770000D01*
X9779790Y-14770000D01*
X9796325Y-14730081D01*
X9863000Y-14394883D01*
X9863000Y-14053117D01*
X9796325Y-13717919D01*
X9665537Y-13402169D01*
X9510407Y-13170000D01*
X11261928Y-13170000D01*
X11265000Y-13684250D01*
X11423750Y-13843000D01*
X12573000Y-13843000D01*
X12573000Y-12693750D01*
X12827000Y-12693750D01*
X12827000Y-13843000D01*
X12847000Y-13843000D01*
X12847000Y-14097000D01*
X12827000Y-14097000D01*
X12827000Y-15246250D01*
X12985750Y-15405000D01*
X13500000Y-15408072D01*
X13624482Y-15395812D01*
X13744180Y-15359502D01*
X13854494Y-15300537D01*
X13951185Y-15221185D01*
X13964790Y-15204607D01*
X14020273Y-15241680D01*
X14281426Y-15349853D01*
X14558665Y-15405000D01*
X14841335Y-15405000D01*
X15118574Y-15349853D01*
X15379727Y-15241680D01*
X15614759Y-15084637D01*
X15814637Y-14884759D01*
X15971680Y-14649727D01*
X16079853Y-14388574D01*
X16135000Y-14111335D01*
X16135000Y-13828665D01*
X16125295Y-13779872D01*
X18765000Y-13779872D01*
X18765000Y-14220128D01*
X18850890Y-14651925D01*
X19019369Y-15058669D01*
X19263962Y-15424729D01*
X19575271Y-15736038D01*
X19941331Y-15980631D01*
X20348075Y-16149110D01*
X20779872Y-16235000D01*
X21220128Y-16235000D01*
X21651925Y-16149110D01*
X22058669Y-15980631D01*
X22424729Y-15736038D01*
X22736038Y-15424729D01*
X22980631Y-15058669D01*
X23149110Y-14651925D01*
X23235000Y-14220128D01*
X23235000Y-13779872D01*
X23149110Y-13348075D01*
X22980631Y-12941331D01*
X22736038Y-12575271D01*
X22424729Y-12263962D01*
X22058669Y-12019369D01*
X21651925Y-11850890D01*
X21220128Y-11765000D01*
X20779872Y-11765000D01*
X20348075Y-11850890D01*
X19941331Y-12019369D01*
X19575271Y-12263962D01*
X19263962Y-12575271D01*
X19019369Y-12941331D01*
X18850890Y-13348075D01*
X18765000Y-13779872D01*
X16125295Y-13779872D01*
X16079853Y-13551426D01*
X15971680Y-13290273D01*
X15814637Y-13055241D01*
X15614759Y-12855363D01*
X15379727Y-12698320D01*
X15118574Y-12590147D01*
X14841335Y-12535000D01*
X14558665Y-12535000D01*
X14281426Y-12590147D01*
X14020273Y-12698320D01*
X13964790Y-12735393D01*
X13951185Y-12718815D01*
X13854494Y-12639463D01*
X13744180Y-12580498D01*
X13624482Y-12544188D01*
X13500000Y-12531928D01*
X12985750Y-12535000D01*
X12827000Y-12693750D01*
X12573000Y-12693750D01*
X12414250Y-12535000D01*
X11900000Y-12531928D01*
X11775518Y-12544188D01*
X11655820Y-12580498D01*
X11545506Y-12639463D01*
X11448815Y-12718815D01*
X11369463Y-12815506D01*
X11310498Y-12925820D01*
X11274188Y-13045518D01*
X11261928Y-13170000D01*
X9510407Y-13170000D01*
X9475663Y-13118002D01*
X9233998Y-12876337D01*
X8949831Y-12686463D01*
X8888000Y-12660852D01*
X8888000Y-12078362D01*
X8968192Y-12035498D01*
X9049691Y-11981042D01*
X9146382Y-11901690D01*
X9215690Y-11832382D01*
X9295042Y-11735691D01*
X9349498Y-11654192D01*
X9408464Y-11543875D01*
X9445973Y-11453319D01*
X9482282Y-11333623D01*
X9501404Y-11237490D01*
X9513664Y-11113009D01*
X9513664Y-11088450D01*
X9516072Y-11064000D01*
X9516072Y-10564000D01*
X9503812Y-10439518D01*
X9496071Y-10414000D01*
X9503812Y-10388482D01*
X9516072Y-10264000D01*
X9516072Y-9764000D01*
X9513664Y-9739550D01*
X9513664Y-9714991D01*
X9501404Y-9590510D01*
X9482282Y-9494377D01*
X9445973Y-9374681D01*
X9408464Y-9284125D01*
X9349498Y-9173808D01*
X9295042Y-9092309D01*
X9215690Y-8995618D01*
X9146382Y-8926310D01*
X9049691Y-8846958D01*
X8968192Y-8792502D01*
X8888000Y-8749638D01*
X8888000Y-8342072D01*
X9228000Y-8342072D01*
X9352482Y-8329812D01*
X9472180Y-8293502D01*
X9582494Y-8234537D01*
X9679185Y-8155185D01*
X9758537Y-8058494D01*
X9817502Y-7948180D01*
X9853812Y-7828482D01*
X9866072Y-7704000D01*
X9866072Y-5504000D01*
X9853812Y-5379518D01*
X9817502Y-5259820D01*
X9758537Y-5149506D01*
X9679185Y-5052815D01*
X9582494Y-4973463D01*
X9472180Y-4914498D01*
X9352482Y-4878188D01*
X9228000Y-4865928D01*
X7028000Y-4865928D01*
X6903518Y-4878188D01*
X6783820Y-4914498D01*
X6673506Y-4973463D01*
X6576815Y-5052815D01*
X6497463Y-5149506D01*
X6438498Y-5259820D01*
X6402188Y-5379518D01*
X6389928Y-5504000D01*
X4041672Y-5504000D01*
X4041672Y-4814344D01*
X17546000Y-4814344D01*
X17546000Y-5185656D01*
X17618439Y-5549834D01*
X17760534Y-5892882D01*
X17966825Y-6201618D01*
X18229382Y-6464175D01*
X18538118Y-6670466D01*
X18881166Y-6812561D01*
X19245344Y-6885000D01*
X19616656Y-6885000D01*
X19980834Y-6812561D01*
X20323882Y-6670466D01*
X20632618Y-6464175D01*
X20895175Y-6201618D01*
X21101466Y-5892882D01*
X21243561Y-5549834D01*
X21316000Y-5185656D01*
X21316000Y-4814344D01*
X21243561Y-4450166D01*
X21101466Y-4107118D01*
X20895175Y-3798382D01*
X20632618Y-3535825D01*
X20323882Y-3329534D01*
X19980834Y-3187439D01*
X19616656Y-3115000D01*
X19245344Y-3115000D01*
X18881166Y-3187439D01*
X18538118Y-3329534D01*
X18229382Y-3535825D01*
X17966825Y-3798382D01*
X17760534Y-4107118D01*
X17618439Y-4450166D01*
X17546000Y-4814344D01*
X4041672Y-4814344D01*
X4041672Y-4216400D01*
X4029412Y-4091918D01*
X3993102Y-3972220D01*
X3934137Y-3861906D01*
X3854785Y-3765215D01*
X3758094Y-3685863D01*
X3647780Y-3626898D01*
X3583426Y-3607376D01*
X3646854Y-3550293D01*
X3822684Y-3314944D01*
X3949222Y-3049814D01*
X3994958Y-2899026D01*
X3873817Y-2667000D01*
X2667000Y-2667000D01*
X2667000Y-2687000D01*
X2413000Y-2687000D01*
X2413000Y-2667000D01*
X127000Y-2667000D01*
X127000Y-2687000D01*
X-127000Y-2687000D01*
X-127000Y-2667000D01*
X-1333817Y-2667000D01*
X-1454958Y-2899026D01*
X-1409222Y-3049814D01*
X-1282684Y-3314944D01*
X-1106854Y-3550293D01*
X-888488Y-3746817D01*
X-789897Y-3805441D01*
X-955302Y-3915961D01*
X-1164039Y-4124698D01*
X-1328042Y-4370147D01*
X-1441010Y-4642875D01*
X-1498600Y-4932401D01*
X-4315000Y-4932401D01*
X-4315000Y-359026D01*
X-1454958Y-359026D01*
X-1409222Y-509814D01*
X-1282684Y-774944D01*
X-1106854Y-1010293D01*
X-888488Y-1206817D01*
X-782230Y-1270000D01*
X-888488Y-1333183D01*
X-1106854Y-1529707D01*
X-1282684Y-1765056D01*
X-1409222Y-2030186D01*
X-1454958Y-2180974D01*
X-1333817Y-2413000D01*
X-127000Y-2413000D01*
X-127000Y-127000D01*
X127000Y-127000D01*
X127000Y-2413000D01*
X2413000Y-2413000D01*
X2413000Y-127000D01*
X2667000Y-127000D01*
X2667000Y-2413000D01*
X3873817Y-2413000D01*
X3994958Y-2180974D01*
X3949222Y-2030186D01*
X3822684Y-1765056D01*
X3646854Y-1529707D01*
X3428488Y-1333183D01*
X3395563Y-1313605D01*
X18297000Y-1313605D01*
X18422914Y-1603577D01*
X18755126Y-1769433D01*
X19113312Y-1867290D01*
X19483706Y-1893389D01*
X19852075Y-1846725D01*
X20204262Y-1729094D01*
X20439086Y-1603577D01*
X20565000Y-1313605D01*
X19431000Y-179605D01*
X18297000Y-1313605D01*
X3395563Y-1313605D01*
X3322230Y-1270000D01*
X3428488Y-1206817D01*
X3646854Y-1010293D01*
X3822684Y-774944D01*
X3949222Y-509814D01*
X3994958Y-359026D01*
X3873817Y-127000D01*
X2667000Y-127000D01*
X2413000Y-127000D01*
X127000Y-127000D01*
X-127000Y-127000D01*
X-1333817Y-127000D01*
X-1454958Y-359026D01*
X-4315000Y-359026D01*
X-4315000Y-52706D01*
X17537611Y-52706D01*
X17584275Y-421075D01*
X17701906Y-773262D01*
X17827423Y-1008086D01*
X18117395Y-1134000D01*
X19251395Y0D01*
X19610605Y0D01*
X20744605Y-1134000D01*
X21034577Y-1008086D01*
X21200433Y-675874D01*
X21298290Y-317688D01*
X21324389Y52706D01*
X21277725Y421075D01*
X21160094Y773262D01*
X21034577Y1008086D01*
X20744605Y1134000D01*
X19610605Y0D01*
X19251395Y0D01*
X18117395Y1134000D01*
X17827423Y1008086D01*
X17661567Y675874D01*
X17563710Y317688D01*
X17537611Y-52706D01*
X-4315000Y-52706D01*
X-4315000Y2180974D01*
X-1454958Y2180974D01*
X-1409222Y2030186D01*
X-1282684Y1765056D01*
X-1106854Y1529707D01*
X-888488Y1333183D01*
X-782230Y1270000D01*
X-888488Y1206817D01*
X-1106854Y1010293D01*
X-1282684Y774944D01*
X-1409222Y509814D01*
X-1454958Y359026D01*
X-1333817Y127000D01*
X-127000Y127000D01*
X-127000Y2413000D01*
X127000Y2413000D01*
X127000Y127000D01*
X2413000Y127000D01*
X2413000Y2413000D01*
X2667000Y2413000D01*
X2667000Y127000D01*
X3873817Y127000D01*
X3994958Y359026D01*
X3949222Y509814D01*
X3822684Y774944D01*
X3646854Y1010293D01*
X3428488Y1206817D01*
X3322230Y1270000D01*
X3395562Y1313605D01*
X18297000Y1313605D01*
X19431000Y179605D01*
X20565000Y1313605D01*
X20439086Y1603577D01*
X20106874Y1769433D01*
X19748688Y1867290D01*
X19378294Y1893389D01*
X19009925Y1846725D01*
X18657738Y1729094D01*
X18422914Y1603577D01*
X18297000Y1313605D01*
X3395562Y1313605D01*
X3428488Y1333183D01*
X3646854Y1529707D01*
X3822684Y1765056D01*
X3949222Y2030186D01*
X3994958Y2180974D01*
X3873817Y2413000D01*
X2667000Y2413000D01*
X2413000Y2413000D01*
X127000Y2413000D01*
X-127000Y2413000D01*
X-1333817Y2413000D01*
X-1454958Y2180974D01*
X-4315000Y2180974D01*
X-4315000Y5227599D01*
X-1498600Y5227599D01*
X-1498600Y4932401D01*
X-1441010Y4642875D01*
X-1328042Y4370147D01*
X-1164039Y4124698D01*
X-955302Y3915961D01*
X-789897Y3805441D01*
X-888488Y3746817D01*
X-1106854Y3550293D01*
X-1282684Y3314944D01*
X-1409222Y3049814D01*
X-1454958Y2899026D01*
X-1333817Y2667000D01*
X-127000Y2667000D01*
X-127000Y2687000D01*
X127000Y2687000D01*
X127000Y2667000D01*
X2413000Y2667000D01*
X2413000Y2687000D01*
X2667000Y2687000D01*
X2667000Y2667000D01*
X3873817Y2667000D01*
X3994958Y2899026D01*
X3949222Y3049814D01*
X3822684Y3314944D01*
X3646854Y3550293D01*
X3428488Y3746817D01*
X3329897Y3805441D01*
X3495302Y3915961D01*
X3704039Y4124698D01*
X3868042Y4370147D01*
X3981010Y4642875D01*
X4038600Y4932401D01*
X4038600Y5227599D01*
X3981010Y5517125D01*
X3868042Y5789853D01*
X3704039Y6035302D01*
X3495302Y6244039D01*
X3249853Y6408042D01*
X2977125Y6521010D01*
X2687599Y6578600D01*
X2392401Y6578600D01*
X2102875Y6521010D01*
X1830147Y6408042D01*
X1584698Y6244039D01*
X1375961Y6035302D01*
X1270000Y5876719D01*
X1164039Y6035302D01*
X955302Y6244039D01*
X709853Y6408042D01*
X437125Y6521010D01*
X147599Y6578600D01*
X-147599Y6578600D01*
X-437125Y6521010D01*
X-709853Y6408042D01*
X-955302Y6244039D01*
X-1164039Y6035302D01*
X-1328042Y5789853D01*
X-1441010Y5517125D01*
X-1498600Y5227599D01*
X-4315000Y5227599D01*
X-4315000Y14220128D01*
X-3235000Y14220128D01*
X-3235000Y13779872D01*
X-3149110Y13348075D01*
X-2980631Y12941331D01*
X-2736038Y12575271D01*
X-2424729Y12263962D01*
X-2058669Y12019369D01*
X-1651925Y11850890D01*
X-1220128Y11765000D01*
X-779872Y11765000D01*
X-348075Y11850890D01*
X58669Y12019369D01*
X424729Y12263962D01*
X736038Y12575271D01*
X980631Y12941331D01*
X1149110Y13348075D01*
X1235000Y13779872D01*
X1235000Y14220128D01*
X1149110Y14651925D01*
X980631Y15058669D01*
X803343Y15324000D01*
X6389928Y15324000D01*
X6389928Y13124000D01*
X6402188Y12999518D01*
X6438498Y12879820D01*
X6497463Y12769506D01*
X6576815Y12672815D01*
X6673506Y12593463D01*
X6783820Y12534498D01*
X6903518Y12498188D01*
X7028000Y12485928D01*
X7368000Y12485928D01*
X7368000Y12078362D01*
X7287808Y12035498D01*
X7206309Y11981042D01*
X7109618Y11901690D01*
X7040310Y11832382D01*
X6960958Y11735691D01*
X6906502Y11654192D01*
X6847536Y11543875D01*
X6810027Y11453319D01*
X6773718Y11333623D01*
X6754596Y11237490D01*
X6742336Y11113009D01*
X6742336Y11088450D01*
X6739928Y11064000D01*
X6739928Y10564000D01*
X6752188Y10439518D01*
X6759929Y10414000D01*
X6752188Y10388482D01*
X6739928Y10264000D01*
X6739928Y9764000D01*
X6742336Y9739550D01*
X6742336Y9714991D01*
X6754596Y9590510D01*
X6773718Y9494377D01*
X6810027Y9374681D01*
X6847536Y9284125D01*
X6906502Y9173808D01*
X6960958Y9092309D01*
X7040310Y8995618D01*
X7109618Y8926310D01*
X7206309Y8846958D01*
X7287808Y8792502D01*
X7368001Y8749638D01*
X7368000Y8167148D01*
X7306169Y8141537D01*
X7022002Y7951663D01*
X6780337Y7709998D01*
X6590463Y7425831D01*
X6459675Y7110081D01*
X6393000Y6774883D01*
X6393000Y6433117D01*
X6459675Y6097919D01*
X6590463Y5782169D01*
X6780337Y5498002D01*
X7022002Y5256337D01*
X7306169Y5066463D01*
X7621919Y4935675D01*
X7957117Y4869000D01*
X8298883Y4869000D01*
X8634081Y4935675D01*
X8949831Y5066463D01*
X9233998Y5256337D01*
X9475663Y5498002D01*
X9665537Y5782169D01*
X9796325Y6097919D01*
X9826575Y6250000D01*
X17542928Y6250000D01*
X17542928Y3750000D01*
X17555188Y3625518D01*
X17591498Y3505820D01*
X17650463Y3395506D01*
X17729815Y3298815D01*
X17826506Y3219463D01*
X17936820Y3160498D01*
X18056518Y3124188D01*
X18181000Y3111928D01*
X20681000Y3111928D01*
X20805482Y3124188D01*
X20925180Y3160498D01*
X21035494Y3219463D01*
X21132185Y3298815D01*
X21211537Y3395506D01*
X21270502Y3505820D01*
X21306812Y3625518D01*
X21319072Y3750000D01*
X21319072Y6250000D01*
X21306812Y6374482D01*
X21270502Y6494180D01*
X21211537Y6604494D01*
X21132185Y6701185D01*
X21035494Y6780537D01*
X20925180Y6839502D01*
X20805482Y6875812D01*
X20681000Y6888072D01*
X18181000Y6888072D01*
X18056518Y6875812D01*
X17936820Y6839502D01*
X17826506Y6780537D01*
X17729815Y6701185D01*
X17650463Y6604494D01*
X17591498Y6494180D01*
X17555188Y6374482D01*
X17542928Y6250000D01*
X9826575Y6250000D01*
X9863000Y6433117D01*
X9863000Y6774883D01*
X9796325Y7110081D01*
X9665537Y7425831D01*
X9475663Y7709998D01*
X9233998Y7951663D01*
X8949831Y8141537D01*
X8888000Y8167148D01*
X8888000Y8749638D01*
X8968192Y8792502D01*
X9049691Y8846958D01*
X9146382Y8926310D01*
X9215690Y8995618D01*
X9295042Y9092309D01*
X9349498Y9173808D01*
X9408464Y9284125D01*
X9445973Y9374681D01*
X9482282Y9494377D01*
X9501404Y9590510D01*
X9513664Y9714991D01*
X9513664Y9739550D01*
X9516072Y9764000D01*
X9516072Y10264000D01*
X9503812Y10388482D01*
X9496071Y10414000D01*
X9503812Y10439518D01*
X9516072Y10564000D01*
X9516072Y11064000D01*
X9513664Y11088450D01*
X9513664Y11113009D01*
X9501404Y11237490D01*
X9482282Y11333623D01*
X9445973Y11453319D01*
X9408464Y11543875D01*
X9349498Y11654192D01*
X9295042Y11735691D01*
X9215690Y11832382D01*
X9146382Y11901690D01*
X9049691Y11981042D01*
X8968192Y12035498D01*
X8888000Y12078362D01*
X8888000Y12485928D01*
X9228000Y12485928D01*
X9352482Y12498188D01*
X9472180Y12534498D01*
X9582494Y12593463D01*
X9679185Y12672815D01*
X9758537Y12769506D01*
X9817502Y12879820D01*
X9853812Y12999518D01*
X9866072Y13124000D01*
X9866072Y13899488D01*
X11386783Y13899488D01*
X11428213Y13619870D01*
X11523397Y13353708D01*
X11590329Y13228486D01*
X11834298Y13156903D01*
X12647395Y13970000D01*
X11834298Y14783097D01*
X11590329Y14711514D01*
X11469429Y14456004D01*
X11400700Y14181816D01*
X11386783Y13899488D01*
X9866072Y13899488D01*
X9866072Y14962702D01*
X12013903Y14962702D01*
X12827000Y14149605D01*
X12841143Y14163748D01*
X13020748Y13984143D01*
X13006605Y13970000D01*
X13020748Y13955858D01*
X12841143Y13776253D01*
X12827000Y13790395D01*
X12013903Y12977298D01*
X12085486Y12733329D01*
X12340996Y12612429D01*
X12615184Y12543700D01*
X12897512Y12529783D01*
X13177130Y12571213D01*
X13443292Y12666397D01*
X13565309Y12731616D01*
X13575815Y12718815D01*
X13672506Y12639463D01*
X13782820Y12580498D01*
X13902518Y12544188D01*
X14027000Y12531928D01*
X15627000Y12531928D01*
X15751482Y12544188D01*
X15871180Y12580498D01*
X15981494Y12639463D01*
X16078185Y12718815D01*
X16157537Y12815506D01*
X16216502Y12925820D01*
X16252812Y13045518D01*
X16265072Y13170000D01*
X16265072Y14220128D01*
X18765000Y14220128D01*
X18765000Y13779872D01*
X18850890Y13348075D01*
X19019369Y12941331D01*
X19263962Y12575271D01*
X19575271Y12263962D01*
X19941331Y12019369D01*
X20348075Y11850890D01*
X20779872Y11765000D01*
X21220128Y11765000D01*
X21651925Y11850890D01*
X22058669Y12019369D01*
X22424729Y12263962D01*
X22736038Y12575271D01*
X22980631Y12941331D01*
X23149110Y13348075D01*
X23235000Y13779872D01*
X23235000Y14220128D01*
X23149110Y14651925D01*
X22980631Y15058669D01*
X22736038Y15424729D01*
X22424729Y15736038D01*
X22058669Y15980631D01*
X21651925Y16149110D01*
X21220128Y16235000D01*
X20779872Y16235000D01*
X20348075Y16149110D01*
X19941331Y15980631D01*
X19575271Y15736038D01*
X19263962Y15424729D01*
X19019369Y15058669D01*
X18850890Y14651925D01*
X18765000Y14220128D01*
X16265072Y14220128D01*
X16265072Y14770000D01*
X16252812Y14894482D01*
X16216502Y15014180D01*
X16157537Y15124494D01*
X16078185Y15221185D01*
X15981494Y15300537D01*
X15871180Y15359502D01*
X15751482Y15395812D01*
X15627000Y15408072D01*
X14027000Y15408072D01*
X13902518Y15395812D01*
X13782820Y15359502D01*
X13672506Y15300537D01*
X13575815Y15221185D01*
X13565193Y15208242D01*
X13313004Y15327571D01*
X13038816Y15396300D01*
X12756488Y15410217D01*
X12476870Y15368787D01*
X12210708Y15273603D01*
X12085486Y15206671D01*
X12013903Y14962702D01*
X9866072Y14962702D01*
X9866072Y15324000D01*
X9853812Y15448482D01*
X9817502Y15568180D01*
X9758537Y15678494D01*
X9679185Y15775185D01*
X9582494Y15854537D01*
X9472180Y15913502D01*
X9352482Y15949812D01*
X9228000Y15962072D01*
X7028000Y15962072D01*
X6903518Y15949812D01*
X6783820Y15913502D01*
X6673506Y15854537D01*
X6576815Y15775185D01*
X6497463Y15678494D01*
X6438498Y15568180D01*
X6402188Y15448482D01*
X6389928Y15324000D01*
X803343Y15324000D01*
X736038Y15424729D01*
X424729Y15736038D01*
X58669Y15980631D01*
X-348075Y16149110D01*
X-779872Y16235000D01*
X-1220128Y16235000D01*
X-1651925Y16149110D01*
X-2058669Y15980631D01*
X-2424729Y15736038D01*
X-2736038Y15424729D01*
X-2980631Y15058669D01*
X-3149110Y14651925D01*
X-3235000Y14220128D01*
X-4315000Y14220128D01*
X-4315000Y17315000D01*
X24315000Y17315000D01*
X24315001Y-17315000D01*
G37*
%TD.AperFunction*%
%TD*%
M02*
