%TF.GenerationSoftware,KiCad,Pcbnew,5.1.8-db9833491~88~ubuntu20.04.1*%
%TF.CreationDate,2020-12-01T07:47:05-05:00*%
%TF.ProjectId,powerbreakout,706f7765-7262-4726-9561-6b6f75742e6b,rev?*%
%TF.SameCoordinates,Original*%
%TF.FileFunction,Legend,Top*%
%TF.FilePolarity,Positive*%
%FSLAX46Y46*%
G04 Gerber Fmt 4.6, Leading zero omitted, Abs format (unit mm)*
G04 Created by KiCad (PCBNEW 5.1.8-db9833491~88~ubuntu20.04.1) date 2020-12-01 07:47:05*
%MOMM*%
%LPD*%
G01*
G04 APERTURE LIST*
%ADD10C,0.150000*%
%ADD11C,0.120000*%
G04 APERTURE END LIST*
D10*
X-1561785Y-11589285D02*
X-1811785Y-11232142D01*
X-1990357Y-11589285D02*
X-1990357Y-10839285D01*
X-1704642Y-10839285D01*
X-1633214Y-10875000D01*
X-1597500Y-10910714D01*
X-1561785Y-10982142D01*
X-1561785Y-11089285D01*
X-1597500Y-11160714D01*
X-1633214Y-11196428D01*
X-1704642Y-11232142D01*
X-1990357Y-11232142D01*
X-1240357Y-11196428D02*
X-990357Y-11196428D01*
X-883214Y-11589285D02*
X-1240357Y-11589285D01*
X-1240357Y-10839285D01*
X-883214Y-10839285D01*
X-561785Y-11589285D02*
X-561785Y-10839285D01*
X-383214Y-10839285D01*
X-276071Y-10875000D01*
X-204642Y-10946428D01*
X-168928Y-11017857D01*
X-133214Y-11160714D01*
X-133214Y-11267857D01*
X-168928Y-11410714D01*
X-204642Y-11482142D01*
X-276071Y-11553571D01*
X-383214Y-11589285D01*
X-561785Y-11589285D01*
X723928Y-11553571D02*
X831071Y-11589285D01*
X1009642Y-11589285D01*
X1081071Y-11553571D01*
X1116785Y-11517857D01*
X1152500Y-11446428D01*
X1152500Y-11375000D01*
X1116785Y-11303571D01*
X1081071Y-11267857D01*
X1009642Y-11232142D01*
X866785Y-11196428D01*
X795357Y-11160714D01*
X759642Y-11125000D01*
X723928Y-11053571D01*
X723928Y-10982142D01*
X759642Y-10910714D01*
X795357Y-10875000D01*
X866785Y-10839285D01*
X1045357Y-10839285D01*
X1152500Y-10875000D01*
X1366785Y-10839285D02*
X1795357Y-10839285D01*
X1581071Y-11589285D02*
X1581071Y-10839285D01*
X2473928Y-11589285D02*
X2223928Y-11232142D01*
X2045357Y-11589285D02*
X2045357Y-10839285D01*
X2331071Y-10839285D01*
X2402500Y-10875000D01*
X2438214Y-10910714D01*
X2473928Y-10982142D01*
X2473928Y-11089285D01*
X2438214Y-11160714D01*
X2402500Y-11196428D01*
X2331071Y-11232142D01*
X2045357Y-11232142D01*
X2795357Y-11589285D02*
X2795357Y-10839285D01*
X3152499Y-11589285D02*
X3152499Y-10839285D01*
X3438214Y-10839285D01*
X3509642Y-10875000D01*
X3545357Y-10910714D01*
X3581071Y-10982142D01*
X3581071Y-11089285D01*
X3545357Y-11160714D01*
X3509642Y-11196428D01*
X3438214Y-11232142D01*
X3152499Y-11232142D01*
X3902499Y-11196428D02*
X4152499Y-11196428D01*
X4259642Y-11589285D02*
X3902499Y-11589285D01*
X3902499Y-10839285D01*
X4259642Y-10839285D01*
X23630000Y-761904D02*
X23582380Y-857142D01*
X23582380Y-1000000D01*
X23630000Y-1142857D01*
X23725238Y-1238095D01*
X23820476Y-1285714D01*
X24010952Y-1333333D01*
X24153809Y-1333333D01*
X24344285Y-1285714D01*
X24439523Y-1238095D01*
X24534761Y-1142857D01*
X24582380Y-1000000D01*
X24582380Y-904761D01*
X24534761Y-761904D01*
X24487142Y-714285D01*
X24153809Y-714285D01*
X24153809Y-904761D01*
X24582380Y-285714D02*
X23582380Y-285714D01*
X24582380Y285714D01*
X23582380Y285714D01*
X24582380Y761904D02*
X23582380Y761904D01*
X23582380Y1000000D01*
X23630000Y1142857D01*
X23725238Y1238095D01*
X23820476Y1285714D01*
X24010952Y1333333D01*
X24153809Y1333333D01*
X24344285Y1285714D01*
X24439523Y1238095D01*
X24534761Y1142857D01*
X24582380Y1000000D01*
X24582380Y761904D01*
X24201428Y-6841904D02*
X24201428Y-6080000D01*
X24582380Y-5080000D02*
X24582380Y-5651428D01*
X24582380Y-5365714D02*
X23582380Y-5365714D01*
X23725238Y-5460952D01*
X23820476Y-5556190D01*
X23868095Y-5651428D01*
X23677619Y-4699047D02*
X23630000Y-4651428D01*
X23582380Y-4556190D01*
X23582380Y-4318095D01*
X23630000Y-4222857D01*
X23677619Y-4175238D01*
X23772857Y-4127619D01*
X23868095Y-4127619D01*
X24010952Y-4175238D01*
X24582380Y-4746666D01*
X24582380Y-4127619D01*
X23582380Y-3841904D02*
X24582380Y-3508571D01*
X23582380Y-3175238D01*
X24201428Y3318095D02*
X24201428Y4080000D01*
X24582380Y3699047D02*
X23820476Y3699047D01*
X24582380Y5080000D02*
X24582380Y4508571D01*
X24582380Y4794285D02*
X23582380Y4794285D01*
X23725238Y4699047D01*
X23820476Y4603809D01*
X23868095Y4508571D01*
X23677619Y5460952D02*
X23630000Y5508571D01*
X23582380Y5603809D01*
X23582380Y5841904D01*
X23630000Y5937142D01*
X23677619Y5984761D01*
X23772857Y6032380D01*
X23868095Y6032380D01*
X24010952Y5984761D01*
X24582380Y5413333D01*
X24582380Y6032380D01*
X23582380Y6318095D02*
X24582380Y6651428D01*
X23582380Y6984761D01*
D11*
%TO.C,J2*%
X14931000Y8100000D02*
X14931000Y-7500000D01*
X22531000Y8100000D02*
X22531000Y-7500000D01*
X22531000Y8100000D02*
X14931000Y8100000D01*
X22531000Y-7500000D02*
X14931000Y-7500000D01*
X20731000Y7050000D02*
X20731000Y6490000D01*
X20731000Y3510000D02*
X20731000Y2950000D01*
X15331000Y7050000D02*
X15331000Y2950000D01*
X20731000Y7050000D02*
X15331000Y7050000D01*
X20731000Y2950000D02*
X15331000Y2950000D01*
X20731000Y2050000D02*
X20731000Y883000D01*
X20731000Y-884000D02*
X20731000Y-2050000D01*
X15331000Y2050000D02*
X15331000Y-2050000D01*
X20731000Y2050000D02*
X15331000Y2050000D01*
X20731000Y-2050000D02*
X15331000Y-2050000D01*
X20731000Y-2950000D02*
X20731000Y-4117000D01*
X20731000Y-5884000D02*
X20731000Y-7050000D01*
X15331000Y-2950000D02*
X15331000Y-7050000D01*
X20731000Y-2950000D02*
X15331000Y-2950000D01*
X20731000Y-7050000D02*
X15331000Y-7050000D01*
X17031000Y8300000D02*
X14731000Y8300000D01*
X14731000Y8300000D02*
X14731000Y6300000D01*
%TO.C,J1*%
X5140000Y-2250000D02*
X5140000Y-9630000D01*
X5640000Y-2250000D02*
X5160000Y-2250000D01*
X5140000Y2250000D02*
X5650000Y2250000D01*
X5140000Y9620000D02*
X5140000Y2270000D01*
X5140000Y9620000D02*
X5640000Y10120000D01*
X-2610000Y9620000D02*
X5140000Y9620000D01*
X-2610000Y9620000D02*
X-3160000Y10170000D01*
X-2610000Y-9630000D02*
X-2610000Y9620000D01*
X-2610000Y-9630000D02*
X-3160000Y-10180000D01*
X5140000Y-9630000D02*
X-2610000Y-9630000D01*
X5690000Y-10180000D02*
X5140000Y-9630000D01*
X5690000Y10170000D02*
X5690000Y-10180000D01*
X-3160000Y10170000D02*
X5690000Y10170000D01*
X-3160000Y-10180000D02*
X-3160000Y10170000D01*
X5690000Y-10180000D02*
X-3160000Y-10180000D01*
X5945000Y-10430000D02*
X-3405000Y-10430000D01*
X5945000Y10430000D02*
X5945000Y-10430000D01*
X-3405000Y10430000D02*
X5945000Y10430000D01*
X-3405000Y-10430000D02*
X-3405000Y10430000D01*
%TO.C,D2*%
X9598000Y-8474000D02*
X6658000Y-8474000D01*
X9598000Y-8714000D02*
X6658000Y-8714000D01*
X9598000Y-8594000D02*
X6658000Y-8594000D01*
X6658000Y-13134000D02*
X6788000Y-13134000D01*
X6658000Y-7694000D02*
X6658000Y-13134000D01*
X6788000Y-7694000D02*
X6658000Y-7694000D01*
X9598000Y-13134000D02*
X9468000Y-13134000D01*
X9598000Y-7694000D02*
X9598000Y-13134000D01*
X9468000Y-7694000D02*
X9598000Y-7694000D01*
%TO.C,D1*%
X9598000Y12354000D02*
X6658000Y12354000D01*
X9598000Y12114000D02*
X6658000Y12114000D01*
X9598000Y12234000D02*
X6658000Y12234000D01*
X6658000Y7694000D02*
X6788000Y7694000D01*
X6658000Y13134000D02*
X6658000Y7694000D01*
X6788000Y13134000D02*
X6658000Y13134000D01*
X9598000Y7694000D02*
X9468000Y7694000D01*
X9598000Y13134000D02*
X9598000Y7694000D01*
X9468000Y13134000D02*
X9598000Y13134000D01*
%TO.C,C2*%
X11145225Y-12245000D02*
X11145225Y-12745000D01*
X10895225Y-12495000D02*
X11395225Y-12495000D01*
X16301000Y-13686000D02*
X16301000Y-14254000D01*
X16261000Y-13452000D02*
X16261000Y-14488000D01*
X16221000Y-13293000D02*
X16221000Y-14647000D01*
X16181000Y-13165000D02*
X16181000Y-14775000D01*
X16141000Y-13055000D02*
X16141000Y-14885000D01*
X16101000Y-12959000D02*
X16101000Y-14981000D01*
X16061000Y-12872000D02*
X16061000Y-15068000D01*
X16021000Y-12792000D02*
X16021000Y-15148000D01*
X15981000Y-12719000D02*
X15981000Y-15221000D01*
X15941000Y-12651000D02*
X15941000Y-15289000D01*
X15901000Y-12587000D02*
X15901000Y-15353000D01*
X15861000Y-12527000D02*
X15861000Y-15413000D01*
X15821000Y-12470000D02*
X15821000Y-15470000D01*
X15781000Y-12416000D02*
X15781000Y-15524000D01*
X15741000Y-12365000D02*
X15741000Y-15575000D01*
X15701000Y-15010000D02*
X15701000Y-15623000D01*
X15701000Y-12317000D02*
X15701000Y-12930000D01*
X15661000Y-15010000D02*
X15661000Y-15669000D01*
X15661000Y-12271000D02*
X15661000Y-12930000D01*
X15621000Y-15010000D02*
X15621000Y-15713000D01*
X15621000Y-12227000D02*
X15621000Y-12930000D01*
X15581000Y-15010000D02*
X15581000Y-15755000D01*
X15581000Y-12185000D02*
X15581000Y-12930000D01*
X15541000Y-15010000D02*
X15541000Y-15796000D01*
X15541000Y-12144000D02*
X15541000Y-12930000D01*
X15501000Y-15010000D02*
X15501000Y-15834000D01*
X15501000Y-12106000D02*
X15501000Y-12930000D01*
X15461000Y-15010000D02*
X15461000Y-15871000D01*
X15461000Y-12069000D02*
X15461000Y-12930000D01*
X15421000Y-15010000D02*
X15421000Y-15907000D01*
X15421000Y-12033000D02*
X15421000Y-12930000D01*
X15381000Y-15010000D02*
X15381000Y-15941000D01*
X15381000Y-11999000D02*
X15381000Y-12930000D01*
X15341000Y-15010000D02*
X15341000Y-15974000D01*
X15341000Y-11966000D02*
X15341000Y-12930000D01*
X15301000Y-15010000D02*
X15301000Y-16005000D01*
X15301000Y-11935000D02*
X15301000Y-12930000D01*
X15261000Y-15010000D02*
X15261000Y-16035000D01*
X15261000Y-11905000D02*
X15261000Y-12930000D01*
X15221000Y-15010000D02*
X15221000Y-16065000D01*
X15221000Y-11875000D02*
X15221000Y-12930000D01*
X15181000Y-15010000D02*
X15181000Y-16092000D01*
X15181000Y-11848000D02*
X15181000Y-12930000D01*
X15141000Y-15010000D02*
X15141000Y-16119000D01*
X15141000Y-11821000D02*
X15141000Y-12930000D01*
X15101000Y-15010000D02*
X15101000Y-16145000D01*
X15101000Y-11795000D02*
X15101000Y-12930000D01*
X15061000Y-15010000D02*
X15061000Y-16170000D01*
X15061000Y-11770000D02*
X15061000Y-12930000D01*
X15021000Y-15010000D02*
X15021000Y-16194000D01*
X15021000Y-11746000D02*
X15021000Y-12930000D01*
X14981000Y-15010000D02*
X14981000Y-16217000D01*
X14981000Y-11723000D02*
X14981000Y-12930000D01*
X14941000Y-15010000D02*
X14941000Y-16238000D01*
X14941000Y-11702000D02*
X14941000Y-12930000D01*
X14901000Y-15010000D02*
X14901000Y-16260000D01*
X14901000Y-11680000D02*
X14901000Y-12930000D01*
X14861000Y-15010000D02*
X14861000Y-16280000D01*
X14861000Y-11660000D02*
X14861000Y-12930000D01*
X14821000Y-15010000D02*
X14821000Y-16299000D01*
X14821000Y-11641000D02*
X14821000Y-12930000D01*
X14781000Y-15010000D02*
X14781000Y-16318000D01*
X14781000Y-11622000D02*
X14781000Y-12930000D01*
X14741000Y-15010000D02*
X14741000Y-16335000D01*
X14741000Y-11605000D02*
X14741000Y-12930000D01*
X14701000Y-15010000D02*
X14701000Y-16352000D01*
X14701000Y-11588000D02*
X14701000Y-12930000D01*
X14661000Y-15010000D02*
X14661000Y-16368000D01*
X14661000Y-11572000D02*
X14661000Y-12930000D01*
X14621000Y-15010000D02*
X14621000Y-16384000D01*
X14621000Y-11556000D02*
X14621000Y-12930000D01*
X14581000Y-15010000D02*
X14581000Y-16398000D01*
X14581000Y-11542000D02*
X14581000Y-12930000D01*
X14541000Y-15010000D02*
X14541000Y-16412000D01*
X14541000Y-11528000D02*
X14541000Y-12930000D01*
X14501000Y-15010000D02*
X14501000Y-16425000D01*
X14501000Y-11515000D02*
X14501000Y-12930000D01*
X14461000Y-15010000D02*
X14461000Y-16438000D01*
X14461000Y-11502000D02*
X14461000Y-12930000D01*
X14421000Y-15010000D02*
X14421000Y-16450000D01*
X14421000Y-11490000D02*
X14421000Y-12930000D01*
X14380000Y-15010000D02*
X14380000Y-16461000D01*
X14380000Y-11479000D02*
X14380000Y-12930000D01*
X14340000Y-15010000D02*
X14340000Y-16471000D01*
X14340000Y-11469000D02*
X14340000Y-12930000D01*
X14300000Y-15010000D02*
X14300000Y-16481000D01*
X14300000Y-11459000D02*
X14300000Y-12930000D01*
X14260000Y-15010000D02*
X14260000Y-16490000D01*
X14260000Y-11450000D02*
X14260000Y-12930000D01*
X14220000Y-15010000D02*
X14220000Y-16498000D01*
X14220000Y-11442000D02*
X14220000Y-12930000D01*
X14180000Y-15010000D02*
X14180000Y-16506000D01*
X14180000Y-11434000D02*
X14180000Y-12930000D01*
X14140000Y-15010000D02*
X14140000Y-16513000D01*
X14140000Y-11427000D02*
X14140000Y-12930000D01*
X14100000Y-15010000D02*
X14100000Y-16520000D01*
X14100000Y-11420000D02*
X14100000Y-12930000D01*
X14060000Y-15010000D02*
X14060000Y-16526000D01*
X14060000Y-11414000D02*
X14060000Y-12930000D01*
X14020000Y-15010000D02*
X14020000Y-16531000D01*
X14020000Y-11409000D02*
X14020000Y-12930000D01*
X13980000Y-15010000D02*
X13980000Y-16535000D01*
X13980000Y-11405000D02*
X13980000Y-12930000D01*
X13940000Y-15010000D02*
X13940000Y-16539000D01*
X13940000Y-11401000D02*
X13940000Y-12930000D01*
X13900000Y-15010000D02*
X13900000Y-16543000D01*
X13900000Y-11397000D02*
X13900000Y-12930000D01*
X13860000Y-15010000D02*
X13860000Y-16546000D01*
X13860000Y-11394000D02*
X13860000Y-12930000D01*
X13820000Y-15010000D02*
X13820000Y-16548000D01*
X13820000Y-11392000D02*
X13820000Y-12930000D01*
X13780000Y-15010000D02*
X13780000Y-16549000D01*
X13780000Y-11391000D02*
X13780000Y-12930000D01*
X13740000Y-11390000D02*
X13740000Y-12930000D01*
X13740000Y-15010000D02*
X13740000Y-16550000D01*
X13700000Y-11390000D02*
X13700000Y-12930000D01*
X13700000Y-15010000D02*
X13700000Y-16550000D01*
X16320000Y-13970000D02*
G75*
G03*
X16320000Y-13970000I-2620000J0D01*
G01*
%TO.C,C1*%
X16381775Y12245000D02*
X16381775Y12745000D01*
X16631775Y12495000D02*
X16131775Y12495000D01*
X11226000Y13686000D02*
X11226000Y14254000D01*
X11266000Y13452000D02*
X11266000Y14488000D01*
X11306000Y13293000D02*
X11306000Y14647000D01*
X11346000Y13165000D02*
X11346000Y14775000D01*
X11386000Y13055000D02*
X11386000Y14885000D01*
X11426000Y12959000D02*
X11426000Y14981000D01*
X11466000Y12872000D02*
X11466000Y15068000D01*
X11506000Y12792000D02*
X11506000Y15148000D01*
X11546000Y12719000D02*
X11546000Y15221000D01*
X11586000Y12651000D02*
X11586000Y15289000D01*
X11626000Y12587000D02*
X11626000Y15353000D01*
X11666000Y12527000D02*
X11666000Y15413000D01*
X11706000Y12470000D02*
X11706000Y15470000D01*
X11746000Y12416000D02*
X11746000Y15524000D01*
X11786000Y12365000D02*
X11786000Y15575000D01*
X11826000Y15010000D02*
X11826000Y15623000D01*
X11826000Y12317000D02*
X11826000Y12930000D01*
X11866000Y15010000D02*
X11866000Y15669000D01*
X11866000Y12271000D02*
X11866000Y12930000D01*
X11906000Y15010000D02*
X11906000Y15713000D01*
X11906000Y12227000D02*
X11906000Y12930000D01*
X11946000Y15010000D02*
X11946000Y15755000D01*
X11946000Y12185000D02*
X11946000Y12930000D01*
X11986000Y15010000D02*
X11986000Y15796000D01*
X11986000Y12144000D02*
X11986000Y12930000D01*
X12026000Y15010000D02*
X12026000Y15834000D01*
X12026000Y12106000D02*
X12026000Y12930000D01*
X12066000Y15010000D02*
X12066000Y15871000D01*
X12066000Y12069000D02*
X12066000Y12930000D01*
X12106000Y15010000D02*
X12106000Y15907000D01*
X12106000Y12033000D02*
X12106000Y12930000D01*
X12146000Y15010000D02*
X12146000Y15941000D01*
X12146000Y11999000D02*
X12146000Y12930000D01*
X12186000Y15010000D02*
X12186000Y15974000D01*
X12186000Y11966000D02*
X12186000Y12930000D01*
X12226000Y15010000D02*
X12226000Y16005000D01*
X12226000Y11935000D02*
X12226000Y12930000D01*
X12266000Y15010000D02*
X12266000Y16035000D01*
X12266000Y11905000D02*
X12266000Y12930000D01*
X12306000Y15010000D02*
X12306000Y16065000D01*
X12306000Y11875000D02*
X12306000Y12930000D01*
X12346000Y15010000D02*
X12346000Y16092000D01*
X12346000Y11848000D02*
X12346000Y12930000D01*
X12386000Y15010000D02*
X12386000Y16119000D01*
X12386000Y11821000D02*
X12386000Y12930000D01*
X12426000Y15010000D02*
X12426000Y16145000D01*
X12426000Y11795000D02*
X12426000Y12930000D01*
X12466000Y15010000D02*
X12466000Y16170000D01*
X12466000Y11770000D02*
X12466000Y12930000D01*
X12506000Y15010000D02*
X12506000Y16194000D01*
X12506000Y11746000D02*
X12506000Y12930000D01*
X12546000Y15010000D02*
X12546000Y16217000D01*
X12546000Y11723000D02*
X12546000Y12930000D01*
X12586000Y15010000D02*
X12586000Y16238000D01*
X12586000Y11702000D02*
X12586000Y12930000D01*
X12626000Y15010000D02*
X12626000Y16260000D01*
X12626000Y11680000D02*
X12626000Y12930000D01*
X12666000Y15010000D02*
X12666000Y16280000D01*
X12666000Y11660000D02*
X12666000Y12930000D01*
X12706000Y15010000D02*
X12706000Y16299000D01*
X12706000Y11641000D02*
X12706000Y12930000D01*
X12746000Y15010000D02*
X12746000Y16318000D01*
X12746000Y11622000D02*
X12746000Y12930000D01*
X12786000Y15010000D02*
X12786000Y16335000D01*
X12786000Y11605000D02*
X12786000Y12930000D01*
X12826000Y15010000D02*
X12826000Y16352000D01*
X12826000Y11588000D02*
X12826000Y12930000D01*
X12866000Y15010000D02*
X12866000Y16368000D01*
X12866000Y11572000D02*
X12866000Y12930000D01*
X12906000Y15010000D02*
X12906000Y16384000D01*
X12906000Y11556000D02*
X12906000Y12930000D01*
X12946000Y15010000D02*
X12946000Y16398000D01*
X12946000Y11542000D02*
X12946000Y12930000D01*
X12986000Y15010000D02*
X12986000Y16412000D01*
X12986000Y11528000D02*
X12986000Y12930000D01*
X13026000Y15010000D02*
X13026000Y16425000D01*
X13026000Y11515000D02*
X13026000Y12930000D01*
X13066000Y15010000D02*
X13066000Y16438000D01*
X13066000Y11502000D02*
X13066000Y12930000D01*
X13106000Y15010000D02*
X13106000Y16450000D01*
X13106000Y11490000D02*
X13106000Y12930000D01*
X13147000Y15010000D02*
X13147000Y16461000D01*
X13147000Y11479000D02*
X13147000Y12930000D01*
X13187000Y15010000D02*
X13187000Y16471000D01*
X13187000Y11469000D02*
X13187000Y12930000D01*
X13227000Y15010000D02*
X13227000Y16481000D01*
X13227000Y11459000D02*
X13227000Y12930000D01*
X13267000Y15010000D02*
X13267000Y16490000D01*
X13267000Y11450000D02*
X13267000Y12930000D01*
X13307000Y15010000D02*
X13307000Y16498000D01*
X13307000Y11442000D02*
X13307000Y12930000D01*
X13347000Y15010000D02*
X13347000Y16506000D01*
X13347000Y11434000D02*
X13347000Y12930000D01*
X13387000Y15010000D02*
X13387000Y16513000D01*
X13387000Y11427000D02*
X13387000Y12930000D01*
X13427000Y15010000D02*
X13427000Y16520000D01*
X13427000Y11420000D02*
X13427000Y12930000D01*
X13467000Y15010000D02*
X13467000Y16526000D01*
X13467000Y11414000D02*
X13467000Y12930000D01*
X13507000Y15010000D02*
X13507000Y16531000D01*
X13507000Y11409000D02*
X13507000Y12930000D01*
X13547000Y15010000D02*
X13547000Y16535000D01*
X13547000Y11405000D02*
X13547000Y12930000D01*
X13587000Y15010000D02*
X13587000Y16539000D01*
X13587000Y11401000D02*
X13587000Y12930000D01*
X13627000Y15010000D02*
X13627000Y16543000D01*
X13627000Y11397000D02*
X13627000Y12930000D01*
X13667000Y15010000D02*
X13667000Y16546000D01*
X13667000Y11394000D02*
X13667000Y12930000D01*
X13707000Y15010000D02*
X13707000Y16548000D01*
X13707000Y11392000D02*
X13707000Y12930000D01*
X13747000Y15010000D02*
X13747000Y16549000D01*
X13747000Y11391000D02*
X13747000Y12930000D01*
X13787000Y11390000D02*
X13787000Y12930000D01*
X13787000Y15010000D02*
X13787000Y16550000D01*
X13827000Y11390000D02*
X13827000Y12930000D01*
X13827000Y15010000D02*
X13827000Y16550000D01*
X16447000Y13970000D02*
G75*
G03*
X16447000Y13970000I-2620000J0D01*
G01*
%TO.C,J2*%
D10*
X13295380Y-333333D02*
X14009666Y-333333D01*
X14152523Y-380952D01*
X14247761Y-476190D01*
X14295380Y-619047D01*
X14295380Y-714285D01*
X13390619Y95238D02*
X13343000Y142857D01*
X13295380Y238095D01*
X13295380Y476190D01*
X13343000Y571428D01*
X13390619Y619047D01*
X13485857Y666666D01*
X13581095Y666666D01*
X13723952Y619047D01*
X14295380Y47619D01*
X14295380Y666666D01*
%TO.C,J1*%
X-4314000Y410714D02*
X-4314000Y-125000D01*
X-4349714Y-232142D01*
X-4421142Y-303571D01*
X-4528285Y-339285D01*
X-4599714Y-339285D01*
X-3564000Y-339285D02*
X-3992571Y-339285D01*
X-3778285Y-339285D02*
X-3778285Y410714D01*
X-3849714Y303571D01*
X-3921142Y232142D01*
X-3992571Y196428D01*
X1738095Y-12821428D02*
X2500000Y-12821428D01*
X3500000Y-13202380D02*
X2928571Y-13202380D01*
X3214285Y-13202380D02*
X3214285Y-12202380D01*
X3119047Y-12345238D01*
X3023809Y-12440476D01*
X2928571Y-12488095D01*
X3880952Y-12297619D02*
X3928571Y-12250000D01*
X4023809Y-12202380D01*
X4261904Y-12202380D01*
X4357142Y-12250000D01*
X4404761Y-12297619D01*
X4452380Y-12392857D01*
X4452380Y-12488095D01*
X4404761Y-12630952D01*
X3833333Y-13202380D01*
X4452380Y-13202380D01*
X4738095Y-12202380D02*
X5071428Y-13202380D01*
X5404761Y-12202380D01*
X1738095Y11178571D02*
X2500000Y11178571D01*
X2119047Y10797619D02*
X2119047Y11559523D01*
X3500000Y10797619D02*
X2928571Y10797619D01*
X3214285Y10797619D02*
X3214285Y11797619D01*
X3119047Y11654761D01*
X3023809Y11559523D01*
X2928571Y11511904D01*
X3880952Y11702380D02*
X3928571Y11750000D01*
X4023809Y11797619D01*
X4261904Y11797619D01*
X4357142Y11750000D01*
X4404761Y11702380D01*
X4452380Y11607142D01*
X4452380Y11511904D01*
X4404761Y11369047D01*
X3833333Y10797619D01*
X4452380Y10797619D01*
X4738095Y11797619D02*
X5071428Y10797619D01*
X5404761Y11797619D01*
%TO.C,D2*%
X11247380Y-11406095D02*
X10247380Y-11406095D01*
X10247380Y-11168000D01*
X10295000Y-11025142D01*
X10390238Y-10929904D01*
X10485476Y-10882285D01*
X10675952Y-10834666D01*
X10818809Y-10834666D01*
X11009285Y-10882285D01*
X11104523Y-10929904D01*
X11199761Y-11025142D01*
X11247380Y-11168000D01*
X11247380Y-11406095D01*
X10342619Y-10453714D02*
X10295000Y-10406095D01*
X10247380Y-10310857D01*
X10247380Y-10072761D01*
X10295000Y-9977523D01*
X10342619Y-9929904D01*
X10437857Y-9882285D01*
X10533095Y-9882285D01*
X10675952Y-9929904D01*
X11247380Y-10501333D01*
X11247380Y-9882285D01*
X11247380Y-6865904D02*
X10247380Y-6865904D01*
X11247380Y-6294476D02*
X10675952Y-6723047D01*
X10247380Y-6294476D02*
X10818809Y-6865904D01*
%TO.C,D1*%
X11247380Y9421904D02*
X10247380Y9421904D01*
X10247380Y9660000D01*
X10295000Y9802857D01*
X10390238Y9898095D01*
X10485476Y9945714D01*
X10675952Y9993333D01*
X10818809Y9993333D01*
X11009285Y9945714D01*
X11104523Y9898095D01*
X11199761Y9802857D01*
X11247380Y9660000D01*
X11247380Y9421904D01*
X11247380Y10945714D02*
X11247380Y10374285D01*
X11247380Y10660000D02*
X10247380Y10660000D01*
X10390238Y10564761D01*
X10485476Y10469523D01*
X10533095Y10374285D01*
X11247380Y13962095D02*
X10247380Y13962095D01*
X11247380Y14533523D02*
X10675952Y14104952D01*
X10247380Y14533523D02*
X10818809Y13962095D01*
%TO.C,C2*%
X13549333Y-10644142D02*
X13501714Y-10691761D01*
X13358857Y-10739380D01*
X13263619Y-10739380D01*
X13120761Y-10691761D01*
X13025523Y-10596523D01*
X12977904Y-10501285D01*
X12930285Y-10310809D01*
X12930285Y-10167952D01*
X12977904Y-9977476D01*
X13025523Y-9882238D01*
X13120761Y-9787000D01*
X13263619Y-9739380D01*
X13358857Y-9739380D01*
X13501714Y-9787000D01*
X13549333Y-9834619D01*
X13930285Y-9834619D02*
X13977904Y-9787000D01*
X14073142Y-9739380D01*
X14311238Y-9739380D01*
X14406476Y-9787000D01*
X14454095Y-9834619D01*
X14501714Y-9929857D01*
X14501714Y-10025095D01*
X14454095Y-10167952D01*
X13882666Y-10739380D01*
X14501714Y-10739380D01*
%TO.C,C1*%
X13803333Y9802857D02*
X13755714Y9755238D01*
X13612857Y9707619D01*
X13517619Y9707619D01*
X13374761Y9755238D01*
X13279523Y9850476D01*
X13231904Y9945714D01*
X13184285Y10136190D01*
X13184285Y10279047D01*
X13231904Y10469523D01*
X13279523Y10564761D01*
X13374761Y10660000D01*
X13517619Y10707619D01*
X13612857Y10707619D01*
X13755714Y10660000D01*
X13803333Y10612380D01*
X14755714Y9707619D02*
X14184285Y9707619D01*
X14470000Y9707619D02*
X14470000Y10707619D01*
X14374761Y10564761D01*
X14279523Y10469523D01*
X14184285Y10421904D01*
%TD*%
M02*
